<svg width="16" height="16" viewBox="0 0 16 16" fill="none" xmlns="http://www.w3.org/2000/svg">
<path d="M8.4707 16H7.53315C7.49376 15.9879 7.45355 15.9787 7.41282 15.9725C6.29685 15.8948 5.23511 15.6098 4.26012 15.0638C1.63194 13.5924 0.203727 11.3442 0.0151159 8.33466C-0.0658357 7.04054 0.177845 5.78689 0.758548 4.62493C2.17658 1.77621 4.4881 0.224638 7.66614 0.0162016C9.10812 -0.0785172 10.4851 0.243637 11.7536 0.941637C14.0093 2.18262 15.3885 4.07507 15.8747 6.60824C15.9331 6.91278 15.9595 7.22392 16.0006 7.53175V8.4693C15.9886 8.51356 15.9794 8.55853 15.973 8.60395C15.8954 9.72543 15.5977 10.7874 15.0531 11.7682C13.8039 14.0172 11.9142 15.3956 9.37851 15.8747C9.07948 15.932 8.77385 15.959 8.4707 16ZM7.996 13.9074C9.40412 13.892 10.6559 13.4415 11.7514 12.556C12.0736 12.2947 12.2305 11.9621 12.2154 11.5493C12.1623 10.09 10.9942 8.98117 9.49663 8.97374C8.50245 8.96841 7.50818 8.96841 6.51382 8.97374C5.07734 8.97979 3.98064 9.94791 3.79588 11.3692C3.73779 11.82 3.84379 12.2201 4.20642 12.5202C5.30505 13.4303 6.56824 13.8927 7.996 13.9074ZM5.35571 5.04401C5.3637 6.50334 6.54989 7.68732 8.00233 7.68732C9.46029 7.68732 10.6674 6.4758 10.6492 5.02914C10.6305 3.56182 9.4479 2.38995 7.99435 2.39904C6.53061 2.40703 5.34773 3.59321 5.35571 5.04401Z" fill="#407BFF"/>
</svg>
