<svg width="16" height="14" viewBox="0 0 16 14" fill="none" xmlns="http://www.w3.org/2000/svg">
<path d="M0.623169 11.6925V6.67822C0.637753 6.68058 0.652197 6.68373 0.666436 6.68766C2.99761 7.46411 5.33009 8.24147 7.66389 9.01975C7.9899 9.13542 8.34544 9.1375 8.67279 9.02565C10.9709 8.25786 13.27 7.49217 15.5699 6.72857C15.6183 6.71244 15.6667 6.6971 15.719 6.68019C15.7229 6.71284 15.7265 6.72739 15.7265 6.74194C15.7265 8.33967 15.732 9.93741 15.719 11.5347C15.7145 11.7605 15.6623 11.9828 15.5656 12.1869C15.2364 12.8819 14.6688 13.2064 13.8998 13.2056C10.0902 13.2025 6.28065 13.2025 2.47106 13.2056C2.40223 13.2056 2.33339 13.2056 2.26495 13.2029C1.90418 13.1845 1.55819 13.0538 1.27548 12.8289C0.992763 12.604 0.787502 12.2963 0.688463 11.9489C0.665256 11.8632 0.644802 11.7774 0.623169 11.6925Z" fill="#407BFF"/>
<path d="M0.623047 4.02236C0.6494 3.92481 0.672214 3.82294 0.701714 3.725C0.932209 2.993 1.58318 2.5147 2.36828 2.51155C3.40079 2.50723 4.43329 2.51155 5.4658 2.51155H5.66247C5.66247 2.28185 5.65736 2.06708 5.66247 1.85272C5.66556 1.56723 5.76696 1.29153 5.94958 1.07207C6.13221 0.852618 6.3849 0.702823 6.66508 0.647928C6.75188 0.630935 6.84018 0.622765 6.92862 0.623541C7.75934 0.623541 8.59046 0.618034 9.42119 0.623541C10.0505 0.627868 10.5394 1.02828 10.6645 1.63087C10.6825 1.73741 10.6907 1.84538 10.6889 1.95341C10.6928 2.13002 10.6889 2.30741 10.6889 2.50959H10.8679C11.8856 2.50959 12.9033 2.50959 13.921 2.50959C14.9889 2.50959 15.7252 3.24945 15.726 4.31893C15.726 4.72682 15.7224 5.13511 15.7283 5.543C15.7283 5.64172 15.7039 5.68892 15.606 5.72157C13.1977 6.52057 10.7895 7.32035 8.38121 8.12092C8.252 8.16238 8.11331 8.16402 7.98315 8.12564C5.54132 7.32061 3.10106 6.51034 0.66238 5.69482C0.6489 5.68918 0.635766 5.68275 0.623047 5.67555V4.02236ZM6.92154 2.49897H9.42591V1.89008H6.92154V2.49897Z" fill="#407BFF"/>
</svg>
