<svg width="15" height="14" viewBox="0 0 15 14" fill="none" xmlns="http://www.w3.org/2000/svg">
<path d="M7.0646 0H7.93969C8.17805 0.0312338 8.41779 0.0547961 8.65451 0.0945233C9.96961 0.319461 11.1327 0.868792 12.1289 1.75539C13.347 2.83926 14.1086 4.18533 14.3949 5.79414C14.4402 6.04867 14.467 6.30649 14.5023 6.56266V7.43775C14.4818 7.60433 14.4643 7.77119 14.4404 7.93749C14.2234 9.45425 13.602 10.7828 12.519 11.8666C10.722 13.6651 8.55094 14.338 6.05799 13.8415C4.22506 13.4766 2.77625 12.4754 1.72252 10.9373C0.664411 9.39014 0.298373 7.67474 0.604135 5.82565C0.843868 4.37629 1.49512 3.12886 2.52748 2.08581C3.57162 1.02852 4.82892 0.36549 6.29608 0.107674C6.55061 0.0627416 6.80843 0.0353435 7.0646 0ZM6.85445 8.10298C6.80185 8.03804 6.78103 8.00763 6.75555 7.98188C6.30184 7.52734 5.84621 7.07473 5.39414 6.61855C5.2218 6.44485 5.02043 6.37498 4.78508 6.4432C4.35 6.56896 4.22589 7.09637 4.55494 7.42953C5.15441 8.03448 5.75853 8.63505 6.36074 9.2378C6.68952 9.56658 7.00103 9.56822 7.33008 9.2378L10.974 5.59523C11.0127 5.5566 11.0527 5.51879 11.0872 5.4766C11.1525 5.39848 11.1961 5.30455 11.2135 5.20424C11.231 5.10394 11.2217 5.0008 11.1867 4.90521C11.1516 4.80962 11.092 4.72494 11.0139 4.6597C10.9357 4.59446 10.8417 4.55095 10.7414 4.53356C10.5195 4.49246 10.3436 4.57548 10.1888 4.73055C9.11662 5.80327 8.04417 6.87582 6.97144 7.94818C6.92929 7.99731 6.89022 8.04901 6.85445 8.10298Z" fill="#407BFF"/>
</svg>
