<svg width="16" height="15" viewBox="0 0 16 15" fill="none" xmlns="http://www.w3.org/2000/svg">
<path d="M15.6211 8.85362C15.5322 8.87994 15.4434 8.9299 15.3541 8.9299C11.6333 8.93371 7.91216 8.93549 4.1908 8.93524C4.09392 8.93524 4.02718 8.90892 3.97417 8.82883C3.67744 8.3807 3.37347 7.93714 3.08362 7.48519C2.96538 7.30098 2.99742 7.18542 3.16905 7.0504C3.46005 6.82157 3.75448 6.59273 4.04625 6.3639C4.46578 6.03361 4.53901 5.59196 4.24266 5.14345C4.05807 4.8635 3.86852 4.58661 3.68774 4.30438C3.65059 4.2456 3.63004 4.17786 3.62824 4.10835C3.62545 2.81721 3.62481 1.52595 3.62634 0.234556C3.62634 0.0320369 3.65647 0 3.85517 0C7.70341 0 11.5517 0.0012713 15.3999 0.00381391C15.4762 0.00381391 15.5486 0.0644552 15.623 0.0968734L15.6211 8.85362ZM9.62028 4.89096C9.85789 4.89935 10.0604 4.80401 10.2477 4.66213L14.7542 1.24334C14.8038 1.20802 14.8489 1.16678 14.8884 1.12053C14.9303 1.07471 14.9534 1.01493 14.9534 0.952907C14.9534 0.890883 14.9303 0.831099 14.8884 0.785285C14.8045 0.680021 14.6909 0.642645 14.5627 0.705193C14.5042 0.735457 14.4488 0.77135 14.3972 0.812364C12.9105 1.93874 11.4243 3.0655 9.93836 4.19264C9.67978 4.38829 9.55697 4.38715 9.29915 4.19264L5.97304 1.66592C5.57601 1.365 5.18012 1.06294 4.78157 0.764308C4.61795 0.6415 4.46921 0.649891 4.36204 0.774987C4.24762 0.909237 4.28157 1.08277 4.45968 1.21816C5.98473 2.37683 7.51144 3.53435 9.03981 4.69073C9.20418 4.82286 9.40941 4.89365 9.62028 4.89096ZM4.63817 8.26323C4.68927 8.22509 4.78805 8.1736 4.86052 8.09694C5.76137 7.13812 6.66018 6.17727 7.55696 5.21438C7.74308 5.0153 7.76939 4.85435 7.63323 4.7262C7.49708 4.59806 7.34185 4.62513 7.15192 4.82842C6.2498 5.79461 5.34832 6.76004 4.44747 7.7247C4.40412 7.76742 4.36724 7.81625 4.33801 7.86963C4.25296 8.04698 4.38683 8.25827 4.63817 8.26323ZM14.9514 7.93638C14.9123 7.86225 14.8659 7.79224 14.8129 7.72737C14.279 7.14842 13.7397 6.57366 13.2019 5.99776C12.8236 5.59272 12.4451 5.18794 12.0665 4.78341C11.9258 4.63391 11.7614 4.61712 11.6375 4.73231C11.5135 4.84749 11.5253 5.01225 11.6611 5.16518C11.6779 5.18425 11.6954 5.20332 11.713 5.22125C12.6077 6.18007 13.5027 7.13876 14.398 8.09732C14.4378 8.14353 14.4835 8.18419 14.5341 8.21822C14.7164 8.32959 14.9468 8.19954 14.9514 7.93638Z" fill="#407BFF"/>
<path d="M9.80012 14.79C8.94618 14.7759 8.16014 14.5177 7.40574 14.1454C6.2139 13.5573 5.1849 12.74 4.21693 11.8422C3.24896 10.9444 2.34087 9.97988 1.56473 8.90283C0.938871 8.03212 0.407592 7.11029 0.142144 6.05956C-0.0127011 5.4459 -0.0557983 4.82843 0.0872235 4.20409C0.163502 3.87342 0.335128 3.6198 0.626511 3.44589C0.966712 3.24298 1.30501 3.03703 1.64597 2.83566C1.84506 2.71781 1.97511 2.74565 2.10135 2.93635C2.66352 3.77541 3.2243 4.61625 3.78367 5.45887C3.91258 5.653 3.89313 5.77428 3.71006 5.91921C3.42325 6.14614 3.13302 6.36887 2.8443 6.59389C2.43011 6.91693 2.35727 7.30671 2.60059 7.7762C3.10289 8.74646 3.81876 9.54777 4.5865 10.3083C5.16126 10.8777 5.7547 11.4265 6.44616 11.8552C6.64957 11.9823 6.85679 12.1008 7.06783 12.2106C7.46753 12.4212 7.8596 12.3411 8.14412 11.9894C8.38363 11.6927 8.61323 11.3884 8.84817 11.0882C9.00683 10.8853 9.12544 10.8662 9.34398 11.0119C10.1729 11.5637 11.0012 12.1162 11.8291 12.6695C12.0458 12.8144 12.0702 12.9269 11.9351 13.1542C11.7612 13.4467 11.5728 13.7316 11.4142 14.0314C11.1937 14.4509 10.8524 14.6744 10.3917 14.7313C10.1945 14.7553 9.99692 14.7705 9.80012 14.79Z" fill="#407BFF"/>
</svg>
