<svg width="17" height="17" viewBox="0 0 17 17" fill="none" xmlns="http://www.w3.org/2000/svg">
<circle cx="8.5" cy="9" r="8" fill="#407BFF"/>
<path d="M11.864 11.692V13.036H6.044L5.78 12.172C6.14 11.82 6.404 11.464 6.572 11.104C6.74 10.736 6.824 10.28 6.824 9.736C6.824 9.68 6.816 9.588 6.8 9.46H5.468V8.308H6.464C6.304 7.764 6.224 7.272 6.224 6.832C6.224 6.288 6.34 5.82 6.572 5.428C6.812 5.028 7.144 4.724 7.568 4.516C7.992 4.308 8.48 4.204 9.032 4.204C9.92 4.204 10.596 4.452 11.06 4.948C11.532 5.436 11.78 6.064 11.804 6.832H10.256C10.248 6.448 10.148 6.148 9.956 5.932C9.764 5.708 9.464 5.596 9.056 5.596C8.68 5.596 8.38 5.708 8.156 5.932C7.94 6.156 7.832 6.5 7.832 6.964C7.832 7.172 7.852 7.38 7.892 7.588C7.94 7.788 8.008 8.028 8.096 8.308H10.352V9.46H8.396C8.412 9.588 8.42 9.684 8.42 9.748C8.42 10.092 8.352 10.436 8.216 10.78C8.088 11.116 7.888 11.42 7.616 11.692H11.864Z" fill="#FEFEFE"/>
</svg>
