<svg width="11" height="16" viewBox="0 0 11 16" fill="none" xmlns="http://www.w3.org/2000/svg">
<path d="M7.39177 7.91117L4.66831 5.57638C3.47232 4.55011 2.27569 3.5245 1.07841 2.49953C0.780713 2.24459 0.614315 1.93372 0.665014 1.537C0.681678 1.34879 0.751696 1.16924 0.866839 1.01947C0.981981 0.8697 1.13746 0.755932 1.31501 0.691538C1.705 0.536753 2.06704 0.610893 2.38359 0.878841C3.01603 1.41669 3.64327 1.95844 4.27246 2.49953C6.03654 4.01183 7.80148 5.52305 9.56729 7.03318C9.91568 7.33105 10.1263 7.68354 9.99433 8.14334C9.92989 8.36796 9.80485 8.57048 9.63294 8.72867C7.20414 10.8246 4.76797 12.9126 2.32444 14.9929C2.22194 15.0834 2.1024 15.1525 1.97285 15.196C1.84329 15.2396 1.70634 15.2569 1.57003 15.2468C1.43372 15.2366 1.30081 15.1994 1.1791 15.1371C1.05739 15.0749 0.949347 14.9889 0.861312 14.8843C0.471317 14.4291 0.532416 13.7969 1.00886 13.3885C3.06803 11.6221 5.12828 9.85682 7.18962 8.09262C7.25072 8.03929 7.30987 7.98466 7.39177 7.91117Z" fill="#040B25"/>
</svg>
