<svg width="19" height="13" viewBox="0 0 19 13" fill="none" xmlns="http://www.w3.org/2000/svg">
<path d="M18.2211 1.59274C18.2232 1.51895 18.2163 1.44517 18.2005 1.37305C18.1218 1.06219 17.8716 0.891602 17.4981 0.891602H7.65797C5.50194 0.891602 3.34573 0.892298 1.18935 0.893691C1.07213 0.8916 0.95534 0.908539 0.843546 0.943848C0.57903 1.03423 0.439453 1.27012 0.439453 1.59301V11.6243C0.439453 11.6593 0.439453 11.694 0.441021 11.7287C0.449399 11.8667 0.503144 11.998 0.5939 12.1023C0.684656 12.2065 0.807338 12.2779 0.94287 12.3053C1.0286 12.3198 1.11548 12.3263 1.20242 12.3249C5.49741 12.3249 9.79275 12.3249 14.0884 12.3249C15.2341 12.3249 16.3798 12.3249 17.5253 12.3249C17.9655 12.3249 18.2229 12.0636 18.2229 11.6243C18.2226 8.28015 18.222 4.93632 18.2211 1.59274ZM4.72268 2.79649C5.03018 2.7966 5.33074 2.88783 5.58636 3.05866C5.84197 3.2295 6.04116 3.47225 6.15872 3.75622C6.27629 4.0402 6.30696 4.35264 6.24685 4.65403C6.18674 4.95543 6.03855 5.23223 5.82102 5.44945C5.6035 5.66667 5.32641 5.81454 5.02479 5.87437C4.72317 5.93419 4.41058 5.90328 4.12654 5.78554C3.8425 5.6678 3.59978 5.46852 3.42907 5.21291C3.25835 4.9573 3.16732 4.65683 3.16747 4.34951C3.16692 4.1453 3.20678 3.94299 3.28475 3.75424C3.36273 3.56548 3.47729 3.394 3.62183 3.24967C3.76637 3.10533 3.93805 2.99098 4.12697 2.91321C4.3159 2.83544 4.51835 2.79577 4.72268 2.79649ZM7.74031 9.92025C7.74031 9.94062 7.739 9.96047 7.73717 9.98007C7.73582 9.9961 7.73364 10.0121 7.73064 10.0279C7.72933 10.0354 7.72776 10.0428 7.72619 10.0501C7.67653 10.2771 7.49487 10.4189 7.23898 10.4195C6.39839 10.4205 5.55779 10.4205 4.71719 10.4195H2.23409C1.96121 10.4195 1.77955 10.2888 1.72309 10.0569C1.721 10.049 1.71917 10.0409 1.7176 10.0326C1.7142 10.0164 1.71133 9.9994 1.70924 9.98216C1.70793 9.97275 1.70714 9.96309 1.7061 9.95316C1.70505 9.94323 1.70453 9.93331 1.70427 9.92312C1.70401 9.91293 1.70427 9.903 1.70427 9.89255C1.70192 9.58352 1.69695 9.27396 1.70845 8.96545C1.70845 8.95186 1.70845 8.93933 1.71054 8.92522C1.7104 8.92252 1.7104 8.91982 1.71054 8.91712C1.71054 8.90092 1.71289 8.88499 1.71446 8.86905C1.71603 8.85312 1.7176 8.83718 1.71969 8.82151C1.77955 8.3513 2.03962 7.98192 2.40686 7.67706C2.86741 7.29462 3.40768 7.08485 3.99212 6.98793C4.89859 6.8372 5.77212 6.93726 6.59128 7.3722C7.01864 7.59921 7.37281 7.90929 7.58975 8.35339C7.59524 8.36436 7.60047 8.37533 7.60544 8.38656C7.61589 8.40877 7.62556 8.43097 7.63471 8.45344C7.63994 8.46676 7.64516 8.47956 7.65013 8.49367C7.6551 8.50777 7.65902 8.5177 7.6632 8.52972C7.66738 8.54173 7.67392 8.56133 7.67862 8.57752C7.68176 8.58719 7.68463 8.59711 7.68751 8.60678C7.68908 8.61174 7.69038 8.61671 7.69169 8.62167C7.693 8.62663 7.69457 8.63186 7.69561 8.63682C7.69849 8.64779 7.70136 8.65876 7.70398 8.66974L7.70633 8.67992C7.70868 8.69063 7.71103 8.70108 7.71312 8.71179C7.71521 8.7225 7.71678 8.7293 7.71835 8.73792C7.72201 8.75855 7.72541 8.77919 7.72828 8.80009V8.80453C7.73142 8.82674 7.73377 8.8492 7.7356 8.87193C7.7356 8.88394 7.73743 8.89596 7.73822 8.90824C7.739 8.92052 7.73978 8.93671 7.74031 8.95108C7.74031 8.96937 7.74031 8.98765 7.74031 9.0062C7.73822 9.31079 7.7424 9.6167 7.74031 9.92025ZM16.3177 9.16999C16.3177 9.18723 16.3159 9.20447 16.3138 9.22224C16.3138 9.23086 16.3117 9.23948 16.3104 9.24836C16.3081 9.26534 16.3047 9.28206 16.3007 9.29878C16.2968 9.3155 16.2926 9.33143 16.2874 9.34737C16.2848 9.35573 16.2817 9.36435 16.2788 9.37349C16.2764 9.38086 16.2736 9.3881 16.2704 9.39517C16.2642 9.41058 16.2574 9.42574 16.2498 9.44036C16.2464 9.44789 16.2425 9.45522 16.2383 9.46231C16.1999 9.53243 16.1478 9.5942 16.0853 9.64403C16.0227 9.69386 15.9509 9.73074 15.8739 9.75254C15.7901 9.77573 15.7034 9.7869 15.6165 9.78571C13.861 9.7878 12.1056 9.7878 10.3502 9.78571C10.025 9.78571 9.77672 9.61643 9.68497 9.37375C9.68107 9.36427 9.67767 9.35459 9.67478 9.34475C9.67138 9.33483 9.6685 9.3249 9.66589 9.31471C9.66033 9.29444 9.65597 9.27385 9.65282 9.25306C9.65099 9.24261 9.64968 9.2319 9.64864 9.22119C9.64759 9.21048 9.64655 9.19977 9.64603 9.1888C9.64459 9.16383 9.64459 9.1388 9.64603 9.11383C9.64603 9.10259 9.64786 9.09136 9.64916 9.07987C9.65335 9.04458 9.66017 9.00965 9.66955 8.97538C9.74613 8.69377 9.99288 8.51169 10.3039 8.51117C11.1968 8.51117 12.0898 8.51117 12.9828 8.51117C13.8846 8.51117 14.7863 8.50986 15.6878 8.51117C15.838 8.51046 15.9835 8.56364 16.0978 8.66105C16.2121 8.75846 16.2877 8.89363 16.3107 9.04199C16.3133 9.05975 16.3151 9.07726 16.3164 9.09423C16.3184 9.11944 16.3188 9.14474 16.3177 9.16999ZM16.323 6.63815V6.65356L16.3214 6.67106C16.3201 6.68517 16.318 6.69954 16.3156 6.71364C16.3156 6.72174 16.3128 6.7301 16.3107 6.7382C16.3086 6.7463 16.307 6.75413 16.3047 6.76223C16.3029 6.77009 16.3007 6.77785 16.2981 6.78548C16.274 6.86218 16.2363 6.93393 16.1868 6.99734C16.1343 7.0706 16.0654 7.13062 15.9856 7.17265C15.9059 7.21469 15.8174 7.23757 15.7273 7.2395C15.5793 7.2442 15.4314 7.2429 15.2829 7.2429C13.6275 7.2429 11.9721 7.2429 10.3167 7.2429C9.99627 7.2429 9.75058 7.05115 9.67112 6.7988C9.66773 6.78921 9.66485 6.77944 9.66249 6.76955C9.65988 6.75962 9.65753 6.74969 9.65544 6.73977C9.65334 6.7301 9.65178 6.7207 9.65021 6.71103C9.65009 6.71052 9.65009 6.70998 9.65021 6.70946C9.6489 6.70215 9.64785 6.69431 9.64707 6.68674L9.6455 6.67211C9.6455 6.66505 9.6442 6.65826 9.64393 6.65095C9.64367 6.64363 9.64393 6.62874 9.64393 6.61725C9.64393 6.60575 9.64393 6.60157 9.64393 6.59348C9.64381 6.59148 9.64381 6.58947 9.64393 6.58747C9.64393 6.57963 9.64394 6.57153 9.64576 6.5637C9.64551 6.56004 9.64551 6.55638 9.64576 6.55272C9.64576 6.54567 9.64733 6.53888 9.64864 6.53183C9.65003 6.52242 9.6516 6.51302 9.65335 6.50361C9.66288 6.45455 9.67787 6.40671 9.69804 6.36098C9.81305 6.09975 10.0237 5.97567 10.3097 5.97593C11.1984 5.97593 12.087 5.97593 12.9757 5.97593H15.6679C15.9377 5.97593 16.1384 6.09505 16.2547 6.33747C16.2881 6.40576 16.31 6.47912 16.3193 6.55455C16.3206 6.56474 16.3214 6.57519 16.3219 6.58538C16.3224 6.59557 16.3219 6.60732 16.3219 6.61829C16.3219 6.62927 16.3232 6.63057 16.323 6.63867V6.63815ZM16.323 4.0598C16.323 4.07835 16.323 4.0969 16.3204 4.11571C16.3204 4.12537 16.3185 4.13504 16.317 4.14496C16.3101 4.19636 16.2972 4.24678 16.2785 4.29517C16.1823 4.547 15.9529 4.70295 15.6682 4.70321C14.771 4.70426 13.8736 4.70426 12.976 4.70321C12.0787 4.70321 11.1814 4.70478 10.2838 4.70321C10.1299 4.70497 9.9806 4.6504 9.86413 4.54979C9.74767 4.44917 9.67205 4.30946 9.65152 4.15698C9.64916 4.14105 9.64733 4.12537 9.64655 4.10944C9.64407 4.07849 9.64407 4.04739 9.64655 4.01644C9.64655 4.0086 9.64786 4.00077 9.6489 3.99319L9.65204 3.9702C9.65204 3.96158 9.65517 3.95296 9.657 3.94408C9.65883 3.9352 9.65936 3.93154 9.66119 3.92501C9.66406 3.91142 9.66772 3.89889 9.6719 3.88478C9.67347 3.87982 9.67504 3.87459 9.67713 3.86963C9.67795 3.86585 9.67918 3.86217 9.68079 3.85866C9.68314 3.8516 9.68575 3.84455 9.68863 3.83776C9.68837 3.83709 9.68837 3.83634 9.68863 3.83567C9.69124 3.82888 9.69386 3.82235 9.69699 3.81581C9.70013 3.80928 9.70327 3.80171 9.70667 3.79465C9.7132 3.78081 9.72026 3.76853 9.7281 3.75416C9.73176 3.74734 9.73577 3.74072 9.74012 3.73431C9.74404 3.72778 9.74823 3.72125 9.75267 3.71498C9.75711 3.70871 9.76129 3.70218 9.766 3.69591C9.7703 3.68958 9.77493 3.68348 9.77985 3.67762L9.79449 3.6596C9.80364 3.64863 9.81357 3.63792 9.82376 3.62747C9.82873 3.62224 9.83396 3.61702 9.83918 3.61205C9.86547 3.58684 9.8939 3.56394 9.92413 3.54361L9.94086 3.53264L9.96177 3.52036L9.97929 3.5107C10.0132 3.49269 10.0487 3.47791 10.0854 3.46655C10.1688 3.44216 10.2554 3.43027 10.3423 3.43128C12.1023 3.42919 13.8623 3.42919 15.6222 3.43128C15.9834 3.43128 16.2495 3.65202 16.3107 3.93885C16.3128 3.94878 16.3146 3.95871 16.3162 3.96863C16.3177 3.97699 16.3188 3.98561 16.3196 3.99476C16.3198 3.99797 16.3198 4.00121 16.3196 4.00442C16.3196 4.01069 16.3196 4.01696 16.3211 4.02349C16.3214 4.02775 16.3214 4.03203 16.3211 4.03629C16.3211 4.04413 16.3211 4.05223 16.3211 4.06033L16.323 4.0598Z" fill="#407BFF"/>
</svg>
