<svg width="15" height="16" viewBox="0 0 15 16" fill="none" xmlns="http://www.w3.org/2000/svg">
<circle cx="7.5" cy="8" r="7.5" fill="#407BFF"/>
<path d="M10.5234 3.72958C10.7538 3.72798 10.9037 3.93498 10.8301 4.16511C10.7098 4.54125 10.5848 4.9158 10.4619 5.29129C9.69553 7.63226 8.92888 9.97334 8.16198 12.3145C8.09963 12.505 7.96824 12.6063 7.8089 12.581C7.66556 12.5579 7.5806 12.4682 7.54196 12.3309C7.41535 11.8822 7.28822 11.4336 7.16058 10.9851C6.93781 10.2003 6.71572 9.41519 6.49432 8.6299C6.4753 8.56213 6.4398 8.53969 6.37597 8.52856C5.12809 8.31072 3.88059 8.09164 2.63346 7.87133C2.39411 7.82913 2.2698 7.66587 2.32682 7.46781C2.35814 7.36005 2.43444 7.29741 2.53533 7.25282C3.70242 6.73736 4.86903 6.22079 6.03514 5.70313C7.4739 5.06549 8.91265 4.42785 10.3514 3.79021C10.407 3.76687 10.4661 3.74987 10.5234 3.72958Z" fill="white"/>
</svg>
