<svg width="55" height="55" viewBox="0 0 55 55" fill="none" xmlns="http://www.w3.org/2000/svg">
<g filter="url(#filter0_d_254_3183)">
<circle cx="27.5" cy="27.5" r="21.5" fill="white"/>
<path d="M37.7176 15.4782C38.3528 15.4738 38.766 16.0449 38.5628 16.6796C38.2311 17.7171 37.8862 18.7502 37.5471 19.7858C35.4327 26.2426 33.3175 32.6997 31.2016 39.1571C31.0296 39.6826 30.6673 39.9619 30.228 39.8919C29.8328 39.8283 29.5986 39.5808 29.4922 39.2019C29.1434 37.9643 28.7932 36.727 28.4416 35.4899C27.8279 33.325 27.2162 31.1594 26.6063 28.9933C26.5539 28.8063 26.456 28.7444 26.28 28.7137C22.8398 28.1124 19.4006 27.5077 15.9624 26.8995C15.3025 26.783 14.9599 26.3327 15.1172 25.7864C15.2036 25.4892 15.414 25.3164 15.6922 25.1935C18.9102 23.7721 22.1269 22.3477 25.3422 20.9202C29.3093 19.1619 33.2764 17.4036 37.2434 15.6454C37.3967 15.581 37.5595 15.5341 37.7176 15.4782Z" fill="#2C66ED"/>
</g>
<defs>
<filter id="filter0_d_254_3183" x="0" y="0" width="55" height="55" filterUnits="userSpaceOnUse" color-interpolation-filters="sRGB">
<feFlood flood-opacity="0" result="BackgroundImageFix"/>
<feColorMatrix in="SourceAlpha" type="matrix" values="0 0 0 0 0 0 0 0 0 0 0 0 0 0 0 0 0 0 127 0" result="hardAlpha"/>
<feOffset/>
<feGaussianBlur stdDeviation="3"/>
<feComposite in2="hardAlpha" operator="out"/>
<feColorMatrix type="matrix" values="0 0 0 0 0 0 0 0 0 0 0 0 0 0 0 0 0 0 0.25 0"/>
<feBlend mode="normal" in2="BackgroundImageFix" result="effect1_dropShadow_254_3183"/>
<feBlend mode="normal" in="SourceGraphic" in2="effect1_dropShadow_254_3183" result="shape"/>
</filter>
</defs>
</svg>
