<svg width="15" height="14" viewBox="0 0 15 14" fill="none" xmlns="http://www.w3.org/2000/svg">
<path d="M7.01701e-06 7C0.00542367 3.13459 3.14125 -0.00665606 6.98916 1.05919e-05C10.8783 0.00709391 14.0083 3.13334 14.0037 7.00708C14 10.8679 10.8483 14.0091 6.98707 14C3.12583 13.9908 -0.00540964 10.8587 7.01701e-06 7ZM3.23792 4.24625C3.29375 4.68417 3.32125 5.1275 3.41 5.55917C4.25666 9.72832 8.83707 11.9629 12.6337 10.0629C12.7144 10.0209 12.7803 9.95517 12.8225 9.87457C13.4687 8.54666 13.6437 7.15541 13.3496 5.71041C12.5041 1.56251 7.92041 -0.683321 4.13 1.19292C4.04963 1.23585 3.98412 1.30209 3.94208 1.38292C3.49417 2.28292 3.27375 3.23792 3.23792 4.2475V4.24625Z" fill="#407BFF"/>
</svg>
