<svg width="70" height="70" viewBox="0 0 70 70" fill="none" xmlns="http://www.w3.org/2000/svg">
<g filter="url(#filter0_d_1_2314)">
<circle cx="35" cy="35" r="29" fill="url(#paint0_radial_1_2314)"/>
<circle cx="35.3475" cy="35.3474" r="26.6587" stroke="#FDFEFF"/>
<path d="M32.9902 23.704C32.7182 23.2053 32.3442 22.8257 31.8682 22.565C31.3922 22.3043 30.8368 22.174 30.2022 22.174C29.4995 22.174 28.8762 22.3327 28.3322 22.65C27.7882 22.9673 27.3632 23.4207 27.0572 24.01C26.7512 24.5993 26.5982 25.2793 26.5982 26.05C26.5982 26.8433 26.7512 27.5347 27.0572 28.124C27.3745 28.7133 27.8108 29.1667 28.3662 29.484C28.9215 29.8013 29.5675 29.96 30.3042 29.96C31.2108 29.96 31.9532 29.722 32.5312 29.246C33.1092 28.7587 33.4888 28.0843 33.6702 27.223H29.5902V25.404H36.0162V27.478C35.8575 28.3053 35.5175 29.0703 34.9962 29.773C34.4748 30.4757 33.8005 31.0423 32.9732 31.473C32.1572 31.8923 31.2392 32.102 30.2192 32.102C29.0745 32.102 28.0375 31.847 27.1082 31.337C26.1902 30.8157 25.4648 30.096 24.9322 29.178C24.4108 28.26 24.1502 27.2173 24.1502 26.05C24.1502 24.8827 24.4108 23.84 24.9322 22.922C25.4648 21.9927 26.1902 21.273 27.1082 20.763C28.0375 20.2417 29.0688 19.981 30.2022 19.981C31.5395 19.981 32.7012 20.3097 33.6872 20.967C34.6732 21.613 35.3532 22.5253 35.7272 23.704H32.9902ZM41.959 32.153C41.0523 32.153 40.2363 31.9547 39.511 31.558C38.7857 31.15 38.2133 30.5777 37.794 29.841C37.386 29.1043 37.182 28.2543 37.182 27.291C37.182 26.3277 37.3917 25.4777 37.811 24.741C38.2417 24.0043 38.8253 23.4377 39.562 23.041C40.2987 22.633 41.1203 22.429 42.027 22.429C42.9337 22.429 43.7553 22.633 44.492 23.041C45.2287 23.4377 45.8067 24.0043 46.226 24.741C46.6567 25.4777 46.872 26.3277 46.872 27.291C46.872 28.2543 46.651 29.1043 46.209 29.841C45.7783 30.5777 45.189 31.15 44.441 31.558C43.7043 31.9547 42.877 32.153 41.959 32.153ZM41.959 30.079C42.3897 30.079 42.792 29.977 43.166 29.773C43.5513 29.5577 43.8573 29.2403 44.084 28.821C44.3107 28.4017 44.424 27.8917 44.424 27.291C44.424 26.3957 44.186 25.71 43.71 25.234C43.2453 24.7467 42.673 24.503 41.993 24.503C41.313 24.503 40.7407 24.7467 40.276 25.234C39.8227 25.71 39.596 26.3957 39.596 27.291C39.596 28.1863 39.817 28.8777 40.259 29.365C40.7123 29.841 41.279 30.079 41.959 30.079ZM19.0968 46.091C18.2475 46.091 17.4675 45.8917 16.7568 45.493C16.0461 45.0943 15.4828 44.544 15.0668 43.842C14.6508 43.1313 14.4428 42.3297 14.4428 41.437C14.4428 40.553 14.6508 39.76 15.0668 39.058C15.4828 38.3473 16.0461 37.7927 16.7568 37.394C17.4675 36.9953 18.2475 36.796 19.0968 36.796C19.9548 36.796 20.7348 36.9953 21.4368 37.394C22.1475 37.7927 22.7065 38.3473 23.1138 39.058C23.5298 39.76 23.7378 40.553 23.7378 41.437C23.7378 42.3297 23.5298 43.1313 23.1138 43.842C22.7065 44.544 22.1475 45.0943 21.4368 45.493C20.7261 45.8917 19.9461 46.091 19.0968 46.091ZM19.0968 44.466C19.6428 44.466 20.1238 44.3447 20.5398 44.102C20.9558 43.8507 21.2808 43.4953 21.5148 43.036C21.7488 42.5767 21.8658 42.0437 21.8658 41.437C21.8658 40.8303 21.7488 40.3017 21.5148 39.851C21.2808 39.3917 20.9558 39.0407 20.5398 38.798C20.1238 38.5553 19.6428 38.434 19.0968 38.434C18.5508 38.434 18.0655 38.5553 17.6408 38.798C17.2248 39.0407 16.8998 39.3917 16.6658 39.851C16.4318 40.3017 16.3148 40.8303 16.3148 41.437C16.3148 42.0437 16.4318 42.5767 16.6658 43.036C16.8998 43.4953 17.2248 43.8507 17.6408 44.102C18.0655 44.3447 18.5508 44.466 19.0968 44.466ZM28.3938 40.293H27.1328V46H25.2868V40.293H24.4678V38.798H25.2868V38.434C25.2868 37.55 25.5382 36.9 26.0408 36.484C26.5435 36.068 27.3018 35.873 28.3158 35.899V37.433C27.8738 37.4243 27.5662 37.498 27.3928 37.654C27.2195 37.81 27.1328 38.0917 27.1328 38.499V38.798H28.3938V40.293ZM32.8753 40.293H31.6143V46H29.7683V40.293H28.9493V38.798H29.7683V38.434C29.7683 37.55 30.0196 36.9 30.5223 36.484C31.0249 36.068 31.7833 35.873 32.7973 35.899V37.433C32.3553 37.4243 32.0476 37.498 31.8743 37.654C31.7009 37.81 31.6143 38.0917 31.6143 38.499V38.798H32.8753V40.293ZM35.8747 36.38V46H34.0547V36.38H35.8747ZM38.5959 37.94C38.2752 37.94 38.0065 37.8403 37.7899 37.641C37.5819 37.433 37.4779 37.1773 37.4779 36.874C37.4779 36.5707 37.5819 36.3193 37.7899 36.12C38.0065 35.912 38.2752 35.808 38.5959 35.808C38.9165 35.808 39.1809 35.912 39.3889 36.12C39.6055 36.3193 39.7139 36.5707 39.7139 36.874C39.7139 37.1773 39.6055 37.433 39.3889 37.641C39.1809 37.8403 38.9165 37.94 38.5959 37.94ZM39.4929 38.798V46H37.6729V38.798H39.4929ZM45.282 38.694C46.14 38.694 46.8334 38.967 47.362 39.513C47.8907 40.0503 48.155 40.8043 48.155 41.775V46H46.335V42.022C46.335 41.45 46.192 41.0123 45.906 40.709C45.62 40.397 45.23 40.241 44.736 40.241C44.2334 40.241 43.8347 40.397 43.54 40.709C43.254 41.0123 43.111 41.45 43.111 42.022V46H41.291V38.798H43.111V39.695C43.3537 39.383 43.6614 39.1403 44.034 38.967C44.4154 38.785 44.8314 38.694 45.282 38.694ZM56.5808 42.243C56.5808 42.503 56.5634 42.737 56.5288 42.945H51.2638C51.3071 43.465 51.4891 43.8723 51.8098 44.167C52.1304 44.4617 52.5248 44.609 52.9928 44.609C53.6688 44.609 54.1498 44.3187 54.4358 43.738H56.3988C56.1908 44.4313 55.7921 45.0033 55.2028 45.454C54.6134 45.896 53.8898 46.117 53.0318 46.117C52.3384 46.117 51.7144 45.9653 51.1598 45.662C50.6138 45.35 50.1848 44.9123 49.8728 44.349C49.5694 43.7857 49.4178 43.1357 49.4178 42.399C49.4178 41.6537 49.5694 40.9993 49.8728 40.436C50.1761 39.8727 50.6008 39.4393 51.1468 39.136C51.6928 38.8327 52.3211 38.681 53.0318 38.681C53.7164 38.681 54.3274 38.8283 54.8648 39.123C55.4108 39.4177 55.8311 39.838 56.1258 40.384C56.4291 40.9213 56.5808 41.541 56.5808 42.243ZM54.6958 41.723C54.6871 41.255 54.5181 40.8823 54.1888 40.605C53.8594 40.319 53.4564 40.176 52.9798 40.176C52.5291 40.176 52.1478 40.3147 51.8358 40.592C51.5324 40.8607 51.3461 41.2377 51.2768 41.723H54.6958Z" fill="#FDFEFF"/>
</g>
<defs>
<filter id="filter0_d_1_2314" x="0" y="0" width="70" height="70" filterUnits="userSpaceOnUse" color-interpolation-filters="sRGB">
<feFlood flood-opacity="0" result="BackgroundImageFix"/>
<feColorMatrix in="SourceAlpha" type="matrix" values="0 0 0 0 0 0 0 0 0 0 0 0 0 0 0 0 0 0 127 0" result="hardAlpha"/>
<feOffset/>
<feGaussianBlur stdDeviation="3"/>
<feComposite in2="hardAlpha" operator="out"/>
<feColorMatrix type="matrix" values="0 0 0 0 0 0 0 0 0 0 0 0 0 0 0 0 0 0 0.25 0"/>
<feBlend mode="normal" in2="BackgroundImageFix" result="effect1_dropShadow_1_2314"/>
<feBlend mode="normal" in="SourceGraphic" in2="effect1_dropShadow_1_2314" result="shape"/>
</filter>
<radialGradient id="paint0_radial_1_2314" cx="0" cy="0" r="1" gradientUnits="userSpaceOnUse" gradientTransform="translate(35.8208 35) rotate(148.392) scale(29.2326)">
<stop offset="0.671875" stop-color="#F00505"/>
<stop offset="1" stop-color="#FE3434"/>
</radialGradient>
</defs>
</svg>
