<svg width="65" height="65" viewBox="0 0 65 65" fill="none" xmlns="http://www.w3.org/2000/svg">
<g filter="url(#filter0_d_1_2416)">
<circle cx="32.5" cy="32.5" r="26.5" fill="url(#paint0_linear_1_2416)"/>
<circle cx="32.8183" cy="32.8174" r="24.3175" stroke="#FDFEFF"/>
<path d="M27.232 28.436L22.984 36.626V41H20.464V36.626L16.198 28.436H19.042L21.742 34.178L24.424 28.436H27.232ZM31.2054 30.47V33.62H35.4354V35.618H31.2054V38.948H35.9754V41H28.6854V28.418H35.9754V30.47H31.2054ZM42.6034 41.126C41.7274 41.126 40.9354 40.976 40.2274 40.676C39.5314 40.376 38.9794 39.944 38.5714 39.38C38.1634 38.816 37.9534 38.15 37.9414 37.382H40.6414C40.6774 37.898 40.8574 38.306 41.1814 38.606C41.5174 38.906 41.9734 39.056 42.5494 39.056C43.1374 39.056 43.5994 38.918 43.9354 38.642C44.2714 38.354 44.4394 37.982 44.4394 37.526C44.4394 37.154 44.3254 36.848 44.0974 36.608C43.8694 36.368 43.5814 36.182 43.2334 36.05C42.8974 35.906 42.4294 35.75 41.8294 35.582C41.0134 35.342 40.3474 35.108 39.8314 34.88C39.3274 34.64 38.8894 34.286 38.5174 33.818C38.1574 33.338 37.9774 32.702 37.9774 31.91C37.9774 31.166 38.1634 30.518 38.5354 29.966C38.9074 29.414 39.4294 28.994 40.1014 28.706C40.7734 28.406 41.5414 28.256 42.4054 28.256C43.7014 28.256 44.7514 28.574 45.5554 29.21C46.3714 29.834 46.8214 30.71 46.9054 31.838H44.1334C44.1094 31.406 43.9234 31.052 43.5754 30.776C43.2394 30.488 42.7894 30.344 42.2254 30.344C41.7334 30.344 41.3374 30.47 41.0374 30.722C40.7494 30.974 40.6054 31.34 40.6054 31.82C40.6054 32.156 40.7134 32.438 40.9294 32.666C41.1574 32.882 41.4334 33.062 41.7574 33.206C42.0934 33.338 42.5614 33.494 43.1614 33.674C43.9774 33.914 44.6434 34.154 45.1594 34.394C45.6754 34.634 46.1194 34.994 46.4914 35.474C46.8634 35.954 47.0494 36.584 47.0494 37.364C47.0494 38.036 46.8754 38.66 46.5274 39.236C46.1794 39.812 45.6694 40.274 44.9974 40.622C44.3254 40.958 43.5274 41.126 42.6034 41.126Z" fill="#FDFEFF"/>
</g>
<defs>
<filter id="filter0_d_1_2416" x="0" y="0" width="65" height="65" filterUnits="userSpaceOnUse" color-interpolation-filters="sRGB">
<feFlood flood-opacity="0" result="BackgroundImageFix"/>
<feColorMatrix in="SourceAlpha" type="matrix" values="0 0 0 0 0 0 0 0 0 0 0 0 0 0 0 0 0 0 127 0" result="hardAlpha"/>
<feOffset/>
<feGaussianBlur stdDeviation="3"/>
<feComposite in2="hardAlpha" operator="out"/>
<feColorMatrix type="matrix" values="0 0 0 0 0 0 0 0 0 0 0 0 0 0 0 0 0 0 0.25 0"/>
<feBlend mode="normal" in2="BackgroundImageFix" result="effect1_dropShadow_1_2416"/>
<feBlend mode="normal" in="SourceGraphic" in2="effect1_dropShadow_1_2416" result="shape"/>
</filter>
<linearGradient id="paint0_linear_1_2416" x1="56" y1="18.5" x2="10.5" y2="46.5" gradientUnits="userSpaceOnUse">
<stop stop-color="#4960D6"/>
<stop offset="1" stop-color="#102FCC"/>
</linearGradient>
</defs>
</svg>
