<svg width="17" height="15" viewBox="0 0 17 15" fill="none" xmlns="http://www.w3.org/2000/svg">
<path d="M16.29 13.649C16.2004 13.9607 16.0546 14.2407 15.7397 14.368C15.5643 14.4385 15.3772 14.4757 15.1882 14.4775C12.1472 14.4842 9.10643 14.4857 6.06574 14.4821H1.58922C0.882241 14.4821 0.482056 14.081 0.482056 13.3706V8.56568C0.543415 8.56298 0.593197 8.55835 0.642979 8.55835C3.18996 8.55835 5.73695 8.55835 8.28393 8.55835C8.36729 8.55835 8.43482 8.56066 8.49271 8.6459C9.18348 9.66836 10.1251 10.417 11.1605 11.0588C11.443 11.2339 11.7173 11.4286 12.0569 11.4923C12.4036 11.5624 12.764 11.5026 13.0696 11.3245C14.0146 10.7818 14.9049 10.1651 15.6366 9.34631C15.8346 9.12492 16.0048 8.87808 16.1896 8.64474C16.2199 8.61298 16.2531 8.58418 16.2888 8.55874L16.29 13.649ZM3.94403 10.5327C3.62527 10.5327 3.30651 10.5308 2.98775 10.5327C2.6825 10.5354 2.46407 10.739 2.46021 11.0186C2.45635 11.3052 2.67671 11.5173 2.99006 11.52C3.62218 11.5229 4.25442 11.5229 4.8868 11.52C5.20208 11.52 5.42282 11.3122 5.42166 11.026C5.4205 10.7398 5.20054 10.5362 4.88448 10.5342C4.56842 10.5323 4.25738 10.5327 3.94403 10.5327Z" fill="#407BFF"/>
<path d="M16.2896 5.16392C16.2611 5.38723 16.2317 5.61016 16.2036 5.83347C16.0253 7.24238 15.3577 8.379 14.2852 9.29346C13.7708 9.73199 13.2089 10.1015 12.6258 10.442C12.4414 10.5504 12.2577 10.5628 12.0709 10.454C11.2458 9.97342 10.4628 9.43771 9.81063 8.73036C9.06661 7.9235 8.63439 6.97047 8.47771 5.88824C8.32103 4.806 8.40555 3.72222 8.38857 2.63844C8.38471 2.38698 8.54061 2.23926 8.76367 2.14477C9.6811 1.75471 10.5974 1.36362 11.5125 0.971508C11.7108 0.886657 11.9104 0.804506 12.1072 0.716955C12.1769 0.683711 12.2531 0.66601 12.3304 0.665078C12.4077 0.664146 12.4843 0.680004 12.5548 0.711556C13.6868 1.19752 14.8198 1.68259 15.9539 2.16675C16.1279 2.2408 16.2302 2.37116 16.2896 2.54318V5.16392ZM11.8806 5.74669C11.6641 5.42348 11.4712 5.12612 11.2686 4.83608C11.0992 4.59387 10.8082 4.54103 10.5778 4.69839C10.3544 4.85267 10.2934 5.13808 10.4505 5.37874C10.77 5.86934 11.0947 6.35659 11.4245 6.8405C11.6325 7.14403 12.0053 7.16409 12.2349 6.87906C12.8952 6.06527 13.547 5.24453 14.2007 4.42456C14.2494 4.36756 14.2837 4.29964 14.3005 4.22657C14.3173 4.15351 14.3161 4.07747 14.2972 4.00493C14.278 3.91353 14.2321 3.82987 14.1653 3.76451C14.0986 3.69916 14.0139 3.65505 13.9221 3.63776C13.7083 3.58955 13.5404 3.67285 13.4077 3.83831L12.1265 5.43891C12.0493 5.53765 11.9702 5.63523 11.8806 5.74669Z" fill="#407BFF"/>
<path d="M7.40055 3.62739C7.39167 4.62362 7.3774 5.6052 7.60933 6.57636H0.482012V6.03639C0.482012 5.57357 0.478539 5.11075 0.482012 4.64792C0.490116 4.04702 0.90651 3.62392 1.50428 3.62277C3.43793 3.61891 5.37171 3.61891 7.30562 3.62277C7.3307 3.62161 7.3554 3.62469 7.40055 3.62739Z" fill="#407BFF"/>
</svg>
