<svg width="18" height="25" viewBox="0 0 18 25" fill="none" xmlns="http://www.w3.org/2000/svg">
<path d="M9.96763 0C10.9509 0.295508 11.9859 0.47938 12.9036 0.899659C14.0293 1.41006 15.0305 2.1389 15.8427 3.03935C16.6549 3.93981 17.2603 4.99198 17.62 6.1283C17.9796 7.26461 18.0856 8.45996 17.9311 9.63756C17.7766 10.8152 17.365 11.949 16.7227 12.9662C15.8452 14.3278 14.8652 15.6271 13.7902 16.8538C11.7892 19.1851 10.1332 21.6706 9.18103 24.5764C9.11865 24.7215 9.04722 24.863 8.96713 25C8.76703 24.4779 8.62213 24.0839 8.46343 23.6866C7.56298 21.2339 6.08638 19.1095 4.39588 17.0902C3.29758 15.8342 2.28466 14.5126 1.36332 13.1337C-1.99353 7.84082 1.14597 1.2871 7.52848 0.131337C7.65433 0.0982545 7.77674 0.0542926 7.89418 0L9.96763 0ZM12.4827 8.02469C12.4894 7.36998 12.2923 6.72802 11.9163 6.17974C11.5402 5.63146 11.0021 5.20138 10.3696 4.94372C9.73717 4.68605 9.03872 4.61233 8.36232 4.73184C7.68591 4.85135 7.06181 5.15875 6.56868 5.61529C6.07555 6.07183 5.73545 6.65708 5.59125 7.29728C5.44705 7.93748 5.5052 8.60398 5.75837 9.21278C6.01154 9.82158 6.44841 10.3454 7.01391 10.7183C7.57941 11.0912 8.24823 11.2964 8.93608 11.3081C9.86311 11.3178 10.7565 10.9779 11.421 10.3626C12.0856 9.74742 12.4672 8.90689 12.4827 8.02469Z" fill="#FF0F0F"/>
</svg>
