<svg width="15" height="10" viewBox="0 0 15 10" fill="none" xmlns="http://www.w3.org/2000/svg">
<path d="M7.51684 7.03094L5.27185 4.41075C4.28505 3.26011 3.29888 2.10885 2.31334 0.956961C2.0682 0.670553 1.76929 0.510464 1.38783 0.559241C1.20685 0.575273 1.03421 0.642636 0.890199 0.753413C0.746189 0.86419 0.636796 1.01378 0.574878 1.18459C0.426046 1.55979 0.497335 1.90811 0.754978 2.21266C1.27214 2.82112 1.79305 3.42458 2.31334 4.02991C3.76748 5.7271 5.22057 7.42512 6.67262 9.12398C6.95903 9.45916 7.29797 9.66177 7.74009 9.53483C7.95607 9.47283 8.15079 9.35253 8.3029 9.18714C10.3182 6.85043 12.326 4.50663 14.3262 2.15575C14.4132 2.05713 14.4796 1.94213 14.5215 1.81749C14.5635 1.69284 14.58 1.56108 14.5703 1.42994C14.5606 1.2988 14.5247 1.17093 14.4649 1.05383C14.405 0.936742 14.3224 0.832793 14.2218 0.748095C13.7841 0.372888 13.1762 0.43167 12.7835 0.890049C11.0851 2.87114 9.38767 4.85328 7.69131 6.83646C7.64003 6.89524 7.58751 6.95215 7.51684 7.03094Z" fill="#040B25"/>
</svg>
