<svg width="18" height="18" viewBox="0 0 18 18" fill="none" xmlns="http://www.w3.org/2000/svg">
<path d="M8.60002 7.33103e-08C6.89909 7.33103e-08 5.23637 0.504382 3.82211 1.44936C2.40784 2.39434 1.30556 3.73748 0.654641 5.30893C0.00372627 6.88038 -0.166583 8.60955 0.165251 10.2778C0.497084 11.946 1.31616 13.4784 2.51889 14.6811C3.72162 15.8839 5.254 16.7029 6.92224 17.0348C8.59048 17.3666 10.3197 17.1963 11.8911 16.5454C13.4625 15.8945 14.8057 14.7922 15.7507 13.3779C16.6956 11.9637 17.2 10.3009 17.2 8.60001C17.2002 7.4706 16.9778 6.35222 16.5457 5.30876C16.1136 4.26529 15.4801 3.31717 14.6815 2.51856C13.8829 1.71994 12.9347 1.08648 11.8913 0.654337C10.8478 0.222198 9.72943 -0.000147398 8.60002 7.33103e-08V7.33103e-08ZM12.543 12.5969C11.9188 13.1975 11.0475 13.1459 10.3481 12.4554C9.52289 11.6403 8.71902 10.8039 7.87811 10.0079C7.6809 9.83696 7.42724 9.74534 7.16631 9.7508C5.14542 9.88215 3.59607 7.84218 4.43025 5.89876C4.9916 6.47583 5.48784 7.00351 6.00205 7.51659C6.47696 7.99262 6.68578 7.98476 7.17417 7.51659C7.26847 7.42453 7.36166 7.33246 7.45372 7.23928C7.99936 6.69027 8.00273 6.48818 7.46046 5.9403C6.96197 5.43956 6.46685 4.94669 5.95153 4.43024C7.68388 3.60953 9.73284 4.97251 9.71151 6.88562C9.71151 7.46045 9.88777 7.81748 10.2729 8.18236C11.0206 8.88855 11.7403 9.62617 12.461 10.3593C13.1538 11.0644 13.1818 11.985 12.543 12.5969Z" fill="#407BFF"/>
</svg>
