<svg width="15" height="14" viewBox="0 0 15 14" fill="none" xmlns="http://www.w3.org/2000/svg">
<path d="M6.5646 0H7.43969C7.67805 0.0312338 7.91779 0.0547961 8.15451 0.0945233C9.46961 0.319461 10.6327 0.868792 11.6289 1.75539C12.847 2.83926 13.6086 4.18533 13.8949 5.79414C13.9402 6.04867 13.967 6.30649 14.0023 6.56266V7.43775C13.9818 7.60433 13.9643 7.77119 13.9404 7.93749C13.7234 9.45425 13.102 10.7828 12.019 11.8666C10.222 13.6651 8.05094 14.338 5.55799 13.8415C3.72506 13.4766 2.27625 12.4754 1.22252 10.9373C0.164411 9.39014 -0.201627 7.67474 0.104135 5.82565C0.343868 4.37629 0.99512 3.12886 2.02748 2.08581C3.07162 1.02852 4.32892 0.36549 5.79608 0.107674C6.05061 0.0627416 6.30843 0.0353435 6.5646 0ZM6.35445 8.10298C6.30185 8.03804 6.28103 8.00763 6.25555 7.98188C5.80184 7.52734 5.34621 7.07473 4.89414 6.61855C4.7218 6.44485 4.52043 6.37498 4.28508 6.4432C3.85 6.56896 3.72589 7.09637 4.05494 7.42953C4.65441 8.03448 5.25853 8.63505 5.86074 9.2378C6.18952 9.56658 6.50103 9.56822 6.83008 9.2378L10.474 5.59523C10.5127 5.5566 10.5527 5.51879 10.5872 5.4766C10.6525 5.39848 10.6961 5.30455 10.7135 5.20424C10.731 5.10394 10.7217 5.0008 10.6867 4.90521C10.6516 4.80962 10.592 4.72494 10.5139 4.6597C10.4357 4.59446 10.3417 4.55095 10.2414 4.53356C10.0195 4.49246 9.8436 4.57548 9.6888 4.73055C8.61662 5.80327 7.54417 6.87582 6.47144 7.94818C6.42929 7.99731 6.39022 8.04901 6.35445 8.10298Z" fill="#E6E8EC"/>
</svg>
