<svg width="12" height="101" viewBox="0 0 12 101" fill="none" xmlns="http://www.w3.org/2000/svg">
<path d="M6 101L11.7735 91H0.226497L6 101ZM5 0.5V1.505L7 1.505V0.5L5 0.5ZM5 3.515V5.525H7V3.515H5ZM5 7.535V9.545H7V7.535H5ZM5 11.555L5 13.565H7L7 11.555H5ZM5 15.575L5 17.585H7L7 15.575H5ZM5 19.595V21.605H7V19.595H5ZM5 23.615V25.625H7V23.615H5ZM5 27.635V29.645H7V27.635H5ZM5 31.655V33.665H7V31.655H5ZM5 35.675V37.685H7V35.675H5ZM5 39.695L5 41.705H7L7 39.695H5ZM5 43.715L5 45.725H7L7 43.715H5ZM5 47.735V49.745H7V47.735H5ZM5 51.755V53.765H7V51.755H5ZM5 55.775V57.785H7V55.775H5ZM5 59.795V61.805H7L7 59.795H5ZM5 63.815V65.825H7V63.815H5ZM5 67.835L5 69.845H7L7 67.835H5ZM5 71.855L5 73.865H7L7 71.855H5ZM5 75.875V77.885H7V75.875H5ZM5 79.895V81.905H7V79.895H5ZM5 83.915V85.925H7V83.915H5ZM5 87.935V89.945H7L7 87.935H5ZM5 91.955V93.965H7V91.955H5ZM5 95.975L5 97.985H7L7 95.975H5Z" fill="#323232"/>
</svg>
