<svg width="12" height="101" viewBox="0 0 12 101" fill="none" xmlns="http://www.w3.org/2000/svg">
<path d="M6 100.5L11.7735 90.5H0.226497L6 100.5ZM5 0V1.005L7 1.005V0L5 0ZM5 3.015V5.025H7V3.015H5ZM5 7.035V9.045H7V7.035H5ZM5 11.055L5 13.065H7L7 11.055H5ZM5 15.075L5 17.085H7L7 15.075H5ZM5 19.095V21.105H7V19.095H5ZM5 23.115V25.125H7V23.115H5ZM5 27.135V29.145H7V27.135H5ZM5 31.155V33.165H7V31.155H5ZM5 35.175V37.185H7V35.175H5ZM5 39.195L5 41.205H7L7 39.195H5ZM5 43.215L5 45.225H7L7 43.215H5ZM5 47.235V49.245H7V47.235H5ZM5 51.255V53.265H7V51.255H5ZM5 55.275V57.285H7V55.275H5ZM5 59.295V61.305H7L7 59.295H5ZM5 63.315V65.325H7V63.315H5ZM5 67.335L5 69.345H7L7 67.335H5ZM5 71.355L5 73.365H7L7 71.355H5ZM5 75.375V77.385H7V75.375H5ZM5 79.395V81.405H7V79.395H5ZM5 83.415V85.425H7V83.415H5ZM5 87.435V89.445H7L7 87.435H5ZM5 91.455V93.465H7V91.455H5ZM5 95.475L5 97.485H7L7 95.475H5Z" fill="#8C97A3"/>
</svg>
