<svg width="22" height="17" viewBox="0 0 22 17" fill="none" xmlns="http://www.w3.org/2000/svg">
<path d="M8.86854 16.9922L0 8.93057C3.25911 5.64403 5.92672 2.84715 8.75494 0.214795C9.14666 -0.157339 10.6744 -0.0163196 11.0113 0.410655C11.3481 0.83763 11.3246 2.21257 10.9016 2.72572C9.86743 3.99098 8.51991 5.00161 7.29774 6.1141L7.53669 6.65859H16.4287C17.5177 6.65859 18.6341 6.51365 19.6839 6.7056C20.4674 6.85053 21.1881 7.42244 21.9363 7.80633V9.33795C20.9844 9.59257 20.0404 10.047 19.0846 10.0666C15.234 10.1527 11.3795 10.1018 7.52494 10.1018L7.25857 10.6345C8.25746 11.5081 9.21717 12.4208 10.2552 13.2512C11.6302 14.3559 11.8926 15.5702 10.7919 17L8.86854 16.9922Z" fill="#C9C9CC"/>
</svg>
