<svg width="27" height="27" viewBox="0 0 27 27" fill="none" xmlns="http://www.w3.org/2000/svg">
<path d="M13.5 8.59091C10.7877 8.59091 8.59091 10.7877 8.59091 13.5C8.59091 16.2123 10.7877 18.4091 13.5 18.4091C16.2123 18.4091 18.4091 16.2123 18.4091 13.5C18.4091 10.7877 16.2123 8.59091 13.5 8.59091ZM24.4718 12.2727C23.9073 7.155 19.845 3.09273 14.7273 2.52818V0H12.2727V2.52818C7.155 3.09273 3.09273 7.155 2.52818 12.2727H0V14.7273H2.52818C3.09273 19.845 7.155 23.9073 12.2727 24.4718V27H14.7273V24.4718C19.845 23.9073 23.9073 19.845 24.4718 14.7273H27V12.2727H24.4718ZM13.5 22.0909C8.75045 22.0909 4.90909 18.2495 4.90909 13.5C4.90909 8.75045 8.75045 4.90909 13.5 4.90909C18.2495 4.90909 22.0909 8.75045 22.0909 13.5C22.0909 18.2495 18.2495 22.0909 13.5 22.0909Z" fill="#1C39CE" fill-opacity="0.9"/>
</svg>
