<svg width="124" height="12" viewBox="0 0 124 12" fill="none" xmlns="http://www.w3.org/2000/svg">
<path d="M124 6L114 0.226497V11.7735L124 6ZM0 7H1V5H0V7ZM3 7H5V5H3V7ZM7 7H9V5H7V7ZM11 7H13V5H11V7ZM15 7H17V5H15V7ZM19 7H21V5H19V7ZM23 7H25V5H23V7ZM27 7H29V5H27V7ZM31 7H33V5H31V7ZM35 7H37V5H35V7ZM39 7H41V5H39V7ZM43 7H45V5H43V7ZM47 7H49V5H47V7ZM51 7H53V5H51V7ZM55 7H57V5H55V7ZM59 7H61V5H59V7ZM63 7H65V5H63V7ZM67 7H69V5H67V7ZM71 7H73V5H71V7ZM75 7H77V5H75V7ZM79 7H81V5H79V7ZM83 7H85V5H83V7ZM87 7H89V5H87V7ZM91 7H93V5H91V7ZM95 7H97V5H95V7ZM99 7H101V5H99V7ZM103 7H105V5H103V7ZM107 7H109V5H107V7ZM111 7H113V5H111V7ZM115 7H117V5H115V7ZM119 7H121V5H119V7Z" fill="#8C97A3"/>
</svg>
