<?xml version="1.0"?>
<svg xmlns="http://www.w3.org/2000/svg" xmlns:xlink="http://www.w3.org/1999/xlink" xmlns:svgjs="http://svgjs.com/svgjs" version="1.1" width="512" height="512" x="0" y="0" viewBox="0 0 104.477 104.477" style="enable-background:new 0 0 512 512" xml:space="preserve" class=""><g>
<g xmlns="http://www.w3.org/2000/svg">
	<path style="" d="M69.874,72.746l-6.467-19.902c-0.16-0.495,0.016-1.036,0.436-1.342l16.93-12.301H59.847   c-0.52,0-0.98-0.335-1.142-0.829l-6.467-19.902l-6.466,19.902c-0.161,0.494-0.622,0.829-1.142,0.829H23.704l16.93,12.301   c0.421,0.306,0.597,0.847,0.436,1.342l-6.468,19.902l16.931-12.301c0.21-0.153,0.458-0.229,0.705-0.229   c0.247,0,0.495,0.076,0.705,0.229L69.874,72.746z" fill="#ffffff" data-original="#ffffff" class=""/>
	<path style="" d="M66.795,55.499l37.683,8.468L70.778,49.429l14.394-10.458c0.421-0.306,0.597-0.847,0.437-1.342   c-0.161-0.494-0.622-0.829-1.142-0.829H64.219L84.523,2.557l-25.509,29L53.38,14.215c-0.161-0.494-0.622-0.829-1.142-0.829   c-0.519,0-0.98,0.335-1.142,0.829l-5.635,17.343L19.953,2.557L40.258,36.8H20.011c-0.52,0-0.981,0.335-1.142,0.829   c-0.16,0.495,0.016,1.036,0.437,1.342l14.394,10.458L0,63.967l37.683-8.468l-6.504,20.017c-0.16,0.495,0.016,1.036,0.437,1.342   c0.42,0.307,0.99,0.307,1.41,0l15.801-11.48l3.412,36.542l3.412-36.542l15.801,11.48c0.21,0.153,0.458,0.229,0.705,0.229   s0.495-0.076,0.705-0.229c0.421-0.306,0.597-0.847,0.437-1.342L66.795,55.499z M52.238,60.215c-0.247,0-0.495,0.076-0.705,0.229   L34.602,72.746l6.468-19.902c0.16-0.495-0.016-1.036-0.436-1.342l-16.93-12.301h20.927c0.52,0,0.98-0.335,1.142-0.829l6.466-19.902   l6.467,19.902c0.161,0.494,0.622,0.829,1.142,0.829h20.927l-16.93,12.301c-0.421,0.306-0.597,0.847-0.436,1.342l6.467,19.902   L52.943,60.445C52.733,60.291,52.485,60.215,52.238,60.215z" fill="#ff0000" data-original="#ffc847" class=""/>
</g>
<g xmlns="http://www.w3.org/2000/svg">
</g>
<g xmlns="http://www.w3.org/2000/svg">
</g>
<g xmlns="http://www.w3.org/2000/svg">
</g>
<g xmlns="http://www.w3.org/2000/svg">
</g>
<g xmlns="http://www.w3.org/2000/svg">
</g>
<g xmlns="http://www.w3.org/2000/svg">
</g>
<g xmlns="http://www.w3.org/2000/svg">
</g>
<g xmlns="http://www.w3.org/2000/svg">
</g>
<g xmlns="http://www.w3.org/2000/svg">
</g>
<g xmlns="http://www.w3.org/2000/svg">
</g>
<g xmlns="http://www.w3.org/2000/svg">
</g>
<g xmlns="http://www.w3.org/2000/svg">
</g>
<g xmlns="http://www.w3.org/2000/svg">
</g>
<g xmlns="http://www.w3.org/2000/svg">
</g>
<g xmlns="http://www.w3.org/2000/svg">
</g>
</g></svg>
